<?xml version="1.0" standalone="no"?><!DOCTYPE svg PUBLIC "-//W3C//DTD SVG 1.1//EN" "http://www.w3.org/Graphics/SVG/1.1/DTD/svg11.dtd"><svg t="1616168590705" class="icon" viewBox="0 0 1024 1024" version="1.1" xmlns="http://www.w3.org/2000/svg" p-id="1494" xmlns:xlink="http://www.w3.org/1999/xlink" width="200" height="200"><defs><style type="text/css"></style></defs><path d="M825 314.5c-3.4-50.8 5.1-68.9-23.7-99-42.8-44.8-228.8-35.3-228.8-35.3s-8.9-58.1-96.6-62-99.4 18.5-111.9 37c-12.5 18.6 0 118-13.6 130-13.6 12.1-93.6 5.6-111.9 9.5-18.3 3.9-50.8 6.9-50.8 57.7S222.8 595 247.9 628c14.4 18.9 191.8 60.2 228 49.9 36.4-10.3 39-141.2 39-141.2s2.7 83.2 37.3 100.8C586.7 655 658 656.4 658 656.4s35.5 7.3 43.2 31.9c7.7 24.6 23.7 112-3.4 128.3-27.1 16.4-98.5 12-111 5.2s-19.5-43.9-5.9-56.8c13.6-12.9 47.5-7.8 47.5-7.8l4.2-51.7s-75.6-13-102.5 20.7c-25.4 31.9-27 140.4 7.6 161.9 46 28.6 188.1 23.3 222.9-13.8 34.7-37 65.1-161.3 73.7-287.6 6.8-99.1-5.9-221.4-9.3-272.2zM723.7 500.2s-20.7-10.5-47.6-12.6c-26.9-2.1-41 1.1-41 0.7 0-24.8 20.1-44.8 44.5-44.8s44.8 20.1 44.8 44.8c0 1-0.7 11.9-0.7 11.9z" fill="#89C642" p-id="1495"></path><path d="M328.4 265.4s0.4-25.3 1.7-56.8c1.3-31.5 3.4-62.9 3.4-62.9L209.8 273.2s40.4-5.2 66.1-6.9c25.7-1.7 52.5-0.9 52.5-0.9z" fill="#89C642" p-id="1496"></path></svg>